<svg width="100" height="100" viewBox="0 0 100 100" fill="none" xmlns="http://www.w3.org/2000/svg">
<path d="M50 8.33333C50.8288 8.33333 51.6237 8.66257 52.2097 9.24862C52.7958 9.83467 53.125 10.6295 53.125 11.4583V17.7083C53.125 18.5371 52.7958 19.332 52.2097 19.918C51.6237 20.5041 50.8288 20.8333 50 20.8333C49.1712 20.8333 48.3764 20.5041 47.7903 19.918C47.2043 19.332 46.875 18.5371 46.875 17.7083V11.4583C46.875 10.6295 47.2043 9.83467 47.7903 9.24862C48.3764 8.66257 49.1712 8.33333 50 8.33333ZM50 70.8333C55.5254 70.8333 60.8244 68.6384 64.7314 64.7314C68.6384 60.8244 70.8333 55.5253 70.8333 50C70.8333 44.4746 68.6384 39.1756 64.7314 35.2686C60.8244 31.3616 55.5254 29.1667 50 29.1667C44.4747 29.1667 39.1756 31.3616 35.2686 35.2686C31.3616 39.1756 29.1667 44.4746 29.1667 50C29.1667 55.5253 31.3616 60.8244 35.2686 64.7314C39.1756 68.6384 44.4747 70.8333 50 70.8333ZM50 64.5833C48.0849 64.5833 46.1885 64.2061 44.4192 63.4732C42.6499 62.7404 41.0422 61.6662 39.688 60.312C38.3338 58.9578 37.2596 57.3501 36.5268 55.5808C35.7939 53.8115 35.4167 51.9151 35.4167 50C35.4167 48.0849 35.7939 46.1885 36.5268 44.4192C37.2596 42.6499 38.3338 41.0422 39.688 39.688C41.0422 38.3338 42.6499 37.2596 44.4192 36.5267C46.1885 35.7939 48.0849 35.4167 50 35.4167C53.8677 35.4167 57.5771 36.9531 60.312 39.688C63.0469 42.4229 64.5833 46.1323 64.5833 50C64.5833 53.8677 63.0469 57.5771 60.312 60.312C57.5771 63.0469 53.8677 64.5833 50 64.5833ZM88.5417 53.125C89.3705 53.125 90.1653 52.7958 90.7514 52.2097C91.3374 51.6236 91.6667 50.8288 91.6667 50C91.6667 49.1712 91.3374 48.3763 90.7514 47.7903C90.1653 47.2042 89.3705 46.875 88.5417 46.875H82.2917C81.4629 46.875 80.668 47.2042 80.082 47.7903C79.4959 48.3763 79.1667 49.1712 79.1667 50C79.1667 50.8288 79.4959 51.6236 80.082 52.2097C80.668 52.7958 81.4629 53.125 82.2917 53.125H88.5417ZM50 79.1667C50.8288 79.1667 51.6237 79.4959 52.2097 80.0819C52.7958 80.668 53.125 81.4629 53.125 82.2917V88.5417C53.125 89.3705 52.7958 90.1653 52.2097 90.7514C51.6237 91.3374 50.8288 91.6667 50 91.6667C49.1712 91.6667 48.3764 91.3374 47.7903 90.7514C47.2043 90.1653 46.875 89.3705 46.875 88.5417V82.2917C46.875 81.4629 47.2043 80.668 47.7903 80.0819C48.3764 79.4959 49.1712 79.1667 50 79.1667ZM17.7083 53.125C18.5371 53.125 19.332 52.7958 19.9181 52.2097C20.5041 51.6236 20.8333 50.8288 20.8333 50C20.8333 49.1712 20.5041 48.3763 19.9181 47.7903C19.332 47.2042 18.5371 46.875 17.7083 46.875H11.4583C10.6295 46.875 9.83469 47.2042 9.24863 47.7903C8.66258 48.3763 8.33334 49.1712 8.33334 50C8.33334 50.8288 8.66258 51.6236 9.24863 52.2097C9.83469 52.7958 10.6295 53.125 11.4583 53.125H17.7083ZM17.5833 17.5833C18.1693 16.9981 18.9635 16.6694 19.7917 16.6694C20.6198 16.6694 21.4141 16.9981 22 17.5833L28.25 23.8333C28.802 24.4257 29.1025 25.2093 29.0882 26.0188C29.074 26.8284 28.746 27.6009 28.1734 28.1734C27.6009 28.746 26.8284 29.0739 26.0189 29.0882C25.2093 29.1025 24.4257 28.802 23.8333 28.25L17.5833 22C16.9981 21.4141 16.6694 20.6198 16.6694 19.7917C16.6694 18.9635 16.9981 18.1693 17.5833 17.5833ZM22 82.4167C21.7139 82.7237 21.3689 82.9699 20.9856 83.1407C20.6023 83.3115 20.1884 83.4034 19.7689 83.4108C19.3493 83.4182 18.9325 83.341 18.5434 83.1838C18.1542 83.0267 17.8008 82.7927 17.504 82.496C17.2073 82.1992 16.9733 81.8458 16.8162 81.4566C16.659 81.0675 16.5818 80.6507 16.5892 80.2312C16.5966 79.8116 16.6885 79.3977 16.8593 79.0144C17.0301 78.6311 17.2763 78.2861 17.5833 78L23.8333 71.75C24.1194 71.443 24.4644 71.1967 24.8478 71.0259C25.2311 70.8551 25.6449 70.7633 26.0645 70.7559C26.4841 70.7485 26.9009 70.8256 27.29 70.9828C27.6791 71.14 28.0326 71.3739 28.3293 71.6707C28.6261 71.9674 28.86 72.3209 29.0172 72.71C29.1744 73.0991 29.2515 73.5159 29.2441 73.9355C29.2367 74.3551 29.1449 74.7689 28.9741 75.1522C28.8033 75.5356 28.557 75.8806 28.25 76.1667L22 82.4167ZM82.4167 17.5833C81.8307 16.9981 81.0365 16.6694 80.2083 16.6694C79.3802 16.6694 78.5859 16.9981 78 17.5833L71.75 23.8333C71.198 24.4257 70.8975 25.2093 70.9118 26.0188C70.9261 26.8284 71.254 27.6009 71.8266 28.1734C72.3991 28.746 73.1716 29.0739 73.9812 29.0882C74.7908 29.1025 75.5743 28.802 76.1667 28.25L82.4167 22C83.0019 21.4141 83.3306 20.6198 83.3306 19.7917C83.3306 18.9635 83.0019 18.1693 82.4167 17.5833ZM78 82.4167C78.2861 82.7237 78.6311 82.9699 79.0144 83.1407C79.3978 83.3115 79.8116 83.4034 80.2312 83.4108C80.6508 83.4182 81.0675 83.341 81.4567 83.1838C81.8458 83.0267 82.1993 82.7927 82.496 82.496C82.7927 82.1992 83.0267 81.8458 83.1839 81.4566C83.341 81.0675 83.4182 80.6507 83.4108 80.2312C83.4034 79.8116 83.3116 79.3977 83.1408 79.0144C82.97 78.6311 82.7237 78.2861 82.4167 78L76.1667 71.75C75.8806 71.443 75.5356 71.1967 75.1523 71.0259C74.7689 70.8551 74.3551 70.7633 73.9355 70.7559C73.5159 70.7485 73.0991 70.8256 72.71 70.9828C72.3209 71.14 71.9674 71.3739 71.6707 71.6707C71.3739 71.9674 71.14 72.3209 70.9828 72.71C70.8257 73.0991 70.7485 73.5159 70.7559 73.9355C70.7633 74.3551 70.8551 74.7689 71.0259 75.1522C71.1967 75.5356 71.443 75.8806 71.75 76.1667L78 82.4167Z" fill="#1A1A1A"/>
</svg>
