<svg width="100" height="100" viewBox="0 0 100 100" fill="none" xmlns="http://www.w3.org/2000/svg">
<path d="M54.175 29.2042C67.375 29.2042 74.8667 37.9417 75.9542 48.4958H76.2875C78.3053 48.4931 80.3038 48.8879 82.169 49.6577C84.0342 50.4274 85.7295 51.5571 87.158 52.9821C88.5865 54.4072 89.7203 56.0997 90.4947 57.963C91.269 59.8263 91.6686 61.8239 91.6708 63.8417C91.6681 65.8591 91.268 67.8562 90.4935 69.7191C89.7189 71.5819 88.585 73.2739 87.1565 74.6985C85.7281 76.1231 84.033 77.2524 82.1681 78.0219C80.3031 78.7914 78.3049 79.1861 76.2875 79.1833H32.0583C30.0409 79.1861 28.0427 78.7914 26.1778 78.0219C24.3129 77.2524 22.6178 76.1231 21.1893 74.6985C19.7608 73.2739 18.6269 71.5819 17.8524 69.7191C17.0778 67.8562 16.6777 65.8591 16.675 63.8417C16.6772 61.8239 17.0769 59.8263 17.8512 57.963C18.6255 56.0997 19.7593 54.4072 21.1878 52.9821C22.6164 51.5571 24.3116 50.4274 26.1768 49.6577C28.042 48.8879 30.0406 48.4931 32.0583 48.4958H32.3917C33.4875 37.8708 40.975 29.2042 54.175 29.2042ZM54.175 35.4417C45.5417 35.4417 38.0208 42.25 38.0208 51.65C38.0208 53.1375 36.6917 54.3083 35.1708 54.3083H32.2958C27.0375 54.3083 22.7792 58.475 22.7792 63.625C22.7792 68.7708 27.0375 72.9417 32.2917 72.9417H76.0542C81.3083 72.9417 85.5667 68.775 85.5667 63.625C85.5667 58.4792 81.3083 54.3083 76.0542 54.3083H73.1792C71.6542 54.3083 70.325 53.1417 70.325 51.65C70.325 42.1292 62.8042 35.4417 54.175 35.4417ZM41.6667 16.6667C48.4042 16.6667 54.375 20.0625 57.9167 25.2583C56.675 25.1099 55.4255 25.0361 54.175 25.0375C52.5292 25.0375 50.9458 25.1583 49.4292 25.3917C47.5851 24.0846 45.4407 23.2647 43.195 23.008C40.9493 22.7512 38.6752 23.066 36.5837 23.923C34.4922 24.7801 32.6511 26.1516 31.2313 27.9104C29.8116 29.6692 28.8592 31.7581 28.4625 33.9833L28.1583 35.7083C27.9888 36.6737 27.4843 37.5484 26.7337 38.1786C25.9831 38.8088 25.0343 39.1542 24.0542 39.1542H22.0125C20.5443 39.1526 19.1087 39.5864 17.887 40.4006C16.6653 41.2148 15.7124 42.3729 15.1487 43.7285C14.585 45.0842 14.4359 46.5765 14.7202 48.0169C15.0045 49.4572 15.7094 50.781 16.7458 51.8208C15.4333 53.4875 14.3917 55.3833 13.6833 57.4333C11.4682 55.7344 9.8261 53.3982 8.97762 50.7387C8.12914 48.0791 8.11495 45.2236 8.93695 42.5557C9.75895 39.8879 11.3778 37.5355 13.5759 35.8146C15.774 34.0937 18.4462 33.0868 21.2333 32.9292L22.3042 32.9042C23.1099 28.3542 25.4919 24.2333 29.0324 21.2641C32.573 18.295 37.0459 16.6674 41.6667 16.6667Z" fill="#1A1A1A"/>
</svg>
