<svg width="100" height="100" viewBox="0 0 100 100" fill="none" xmlns="http://www.w3.org/2000/svg">
<path d="M36.1562 54.75C44.4208 51.8583 55.5792 51.8583 63.8437 54.75M76.2437 62.1875C78.9292 65.0833 80.375 68.5958 80.375 72.3146C80.375 102.898 0.40625 94.6312 23.7562 62.1896" stroke="#1A1A1A" stroke-width="2.08333" stroke-linecap="round" stroke-linejoin="round"/>
<path d="M36.1563 53.9229C36.3625 65.4958 18.1771 65.4958 18.3854 53.9229C18.1771 42.3521 36.3625 42.3521 36.1563 53.9229ZM81.6167 53.9229C81.8229 65.4958 63.6375 65.4958 63.8458 53.9229C63.6375 42.3521 81.8229 42.3521 81.6167 53.9229Z" stroke="#1A1A1A" stroke-width="2.08333" stroke-linecap="round" stroke-linejoin="round"/>
<path d="M27.2688 55.4854C28.1317 55.4854 28.8313 54.7859 28.8313 53.9229C28.8313 53.06 28.1317 52.3604 27.2688 52.3604C26.4058 52.3604 25.7063 53.06 25.7063 53.9229C25.7063 54.7859 26.4058 55.4854 27.2688 55.4854Z" fill="#1A1A1A"/>
<path d="M72.7292 55.4854C73.5921 55.4854 74.2917 54.7859 74.2917 53.9229C74.2917 53.06 73.5921 52.3604 72.7292 52.3604C71.8662 52.3604 71.1667 53.06 71.1667 53.9229C71.1667 54.7859 71.8662 55.4854 72.7292 55.4854Z" fill="#1A1A1A"/>
<path d="M52.6854 70.7771C53.5484 70.7771 54.2479 70.0775 54.2479 69.2146C54.2479 68.3516 53.5484 67.6521 52.6854 67.6521C51.8225 67.6521 51.1229 68.3516 51.1229 69.2146C51.1229 70.0775 51.8225 70.7771 52.6854 70.7771Z" fill="#1A1A1A"/>
<path d="M47.3146 70.7771C48.1775 70.7771 48.8771 70.0775 48.8771 69.2146C48.8771 68.3516 48.1775 67.6521 47.3146 67.6521C46.4516 67.6521 45.7521 68.3516 45.7521 69.2146C45.7521 70.0775 46.4516 70.7771 47.3146 70.7771Z" fill="#1A1A1A"/>
<path d="M20.8646 78.3063C40.2875 84.0938 59.5063 84.0938 78.9292 78.3063M50 47.725V35.7396M34.7083 34.5C36.9813 22.7208 42.1458 13.8333 50 8.05C57.8542 13.8354 63.0188 22.5146 65.2917 34.5C55.1667 31.6063 44.8333 31.6063 34.7083 34.5Z" stroke="#1A1A1A" stroke-width="2.08333" stroke-linecap="round" stroke-linejoin="round"/>
<path d="M34.7083 34.5C29.1292 32.4333 23.9625 32.4333 19.0042 34.5C22.7229 16.9375 34.9167 10.7375 50 8.05C65.0833 10.5292 77.2771 16.7292 80.9958 34.5C75.8292 32.4333 70.8708 32.4333 65.2917 34.5" stroke="#1A1A1A" stroke-width="2.08333" stroke-linecap="round" stroke-linejoin="round"/>
</svg>
