<svg width="100" height="100" viewBox="0 0 100 100" fill="none" xmlns="http://www.w3.org/2000/svg">
<path d="M32.2708 81.25H67.6917C68.4834 81.2502 69.2456 81.551 69.8241 82.0915C70.4027 82.6321 70.7545 83.3721 70.8084 84.162C70.8624 84.9519 70.6145 85.7329 70.1149 86.3471C69.6152 86.9613 68.901 87.3629 68.1167 87.4708L67.6917 87.5H32.2708C31.4791 87.4998 30.7169 87.199 30.1384 86.6584C29.5598 86.1179 29.208 85.3779 29.1541 84.588C29.1001 83.7981 29.348 83.0171 29.8476 82.4029C30.3473 81.7887 31.0615 81.3871 31.8458 81.2792L32.2708 81.25ZM19.7917 68.8333H80.2083C80.9951 68.8407 81.7502 69.1446 82.3227 69.6844C82.8953 70.2242 83.2431 70.96 83.2968 71.745C83.3504 72.5301 83.106 73.3064 82.6123 73.9191C82.1185 74.5318 81.4118 74.9356 80.6333 75.05L80.2083 75.0792H19.7917C18.9999 75.0789 18.2377 74.7781 17.6592 74.2376C17.0807 73.6971 16.7289 72.9571 16.6749 72.1672C16.6209 71.3772 16.8688 70.5963 17.3685 69.9821C17.8681 69.3679 18.5823 68.9662 19.3667 68.8583L19.7917 68.8333ZM50 12.5167C63.2042 12.5167 70.6917 21.2542 71.7792 31.8083H72.1125C74.131 31.805 76.1303 32.1996 77.9963 32.9694C79.8622 33.7391 81.5581 34.8691 82.9872 36.2946C84.4162 37.7202 85.5503 39.4134 86.3246 41.2774C87.099 43.1415 87.4984 45.1398 87.5 47.1583C87.4973 49.1761 87.0971 51.1736 86.3222 53.0367C85.5474 54.8998 84.4131 56.592 82.9842 58.0166C81.5553 59.4413 79.8597 60.5705 77.9943 61.3398C76.1289 62.109 74.1303 62.5033 72.1125 62.5H27.8875C25.8697 62.5033 23.8711 62.109 22.0057 61.3398C20.1403 60.5705 18.4447 59.4413 17.0158 58.0166C15.5869 56.592 14.4526 54.8998 13.6778 53.0367C12.9029 51.1736 12.5027 49.1761 12.5 47.1583C12.5022 45.1402 12.902 43.1423 13.6766 41.2787C14.4512 39.4151 15.5853 37.7224 17.0143 36.2973C18.4433 34.8722 20.139 33.7426 22.0047 32.9731C23.8704 32.2036 25.8694 31.8092 27.8875 31.8125H28.2208C29.3125 21.1875 36.7958 12.5208 50 12.5208M50 18.7583C41.3708 18.7583 33.8458 25.5667 33.8458 34.9667C33.8458 36.4542 32.5167 37.625 30.9958 37.625H28.1208C22.8667 37.625 18.6042 41.7917 18.6042 46.9417C18.6042 52.0875 22.8667 56.2583 28.1208 56.2583H71.875C77.1292 56.2583 81.3917 52.0917 81.3917 46.9417C81.3917 41.7958 77.1292 37.625 71.875 37.625H69C67.4792 37.625 66.15 36.4583 66.15 34.9667C66.15 25.4458 58.625 18.7583 49.9958 18.7583" fill="#1A1A1A"/>
</svg>
