<svg width="100" height="100" viewBox="0 0 100 100" fill="none" xmlns="http://www.w3.org/2000/svg">
<path d="M50 16.6708C63.2042 16.6708 70.6917 25.4083 71.7792 35.9625H72.1125C74.1306 35.9592 76.1296 36.3536 77.9953 37.1231C79.861 37.8927 81.5567 39.0222 82.9857 40.4473C84.4147 41.8724 85.5488 43.5651 86.3234 45.4287C87.098 47.2923 87.4978 49.2902 87.5 51.3083C87.4973 53.3258 87.0972 55.3229 86.3226 57.1857C85.5481 59.0485 84.4142 60.7406 82.9857 62.1652C81.5572 63.5898 79.8621 64.7191 77.9972 65.4886C76.1323 66.2581 74.1341 66.6527 72.1167 66.65H69.6917L63.1 77.6292C62.7052 78.3179 62.0631 78.8306 61.304 79.0631C60.5449 79.2955 59.7258 79.2304 59.0131 78.8809C58.3003 78.5314 57.7472 77.9237 57.4662 77.1813C57.1852 76.4388 57.1973 75.6172 57.5 74.8833L57.6875 74.5042L62.475 66.65H53.575L46.9833 77.6292C46.5885 78.3179 45.9464 78.8306 45.1873 79.0631C44.4283 79.2955 43.6092 79.2304 42.8964 78.8809C42.1836 78.5314 41.6305 77.9237 41.3495 77.1813C41.0685 76.4388 41.0806 75.6172 41.3833 74.8833L41.5708 74.5042L46.3542 66.65H37.4458L30.8625 77.6292C30.4722 78.3267 29.8294 78.8481 29.0665 79.0863C28.3035 79.3244 27.4782 79.2611 26.7604 78.9094C26.0427 78.5578 25.487 77.9444 25.2076 77.1956C24.9282 76.4467 24.9463 75.6192 25.2583 74.8833L25.4458 74.5042L30.2292 66.65H27.8875C25.8697 66.6533 23.8711 66.259 22.0057 65.4898C20.1403 64.7205 18.4447 63.5913 17.0158 62.1666C15.5869 60.742 14.4526 59.0498 13.6778 57.1867C12.9029 55.3236 12.5027 53.3261 12.5 51.3083C12.5016 49.2899 12.901 47.2915 13.6754 45.4274C14.4497 43.5634 15.5838 41.8702 17.0128 40.4446C18.4419 39.0191 20.1378 37.8891 22.0037 37.1194C23.8697 36.3496 25.869 35.9551 27.8875 35.9583H28.2208C29.3125 25.3333 36.7958 16.6708 50 16.6708ZM50 22.9083C41.3708 22.9083 33.8458 29.7125 33.8458 39.1125C33.8458 40.6 32.5167 41.7708 30.9958 41.7708H28.1208C22.8667 41.7708 18.6042 45.9417 18.6042 51.0875C18.6042 56.2333 22.8667 60.4083 28.1208 60.4083H71.875C77.1292 60.4083 81.3917 56.2333 81.3917 51.0875C81.3917 45.9417 77.1292 41.7708 71.875 41.7708H69C67.4792 41.7708 66.15 40.6042 66.15 39.1125C66.15 29.5917 58.625 22.9042 49.9958 22.9042" fill="#1A1A1A"/>
</svg>
